# Blender v2.79 (sub 0) OBJ File: ''
# www.blender.org
mtllib Orbit2.mtl
o Torus.004
v 1.010010 0.000000 0.000000
v 0.995010 0.000520 0.000000
v 0.995010 -0.000520 0.000000
v 0.960577 0.000000 -0.312110
v 0.946311 0.000520 -0.307475
v 0.946311 -0.000520 -0.307475
v 0.817115 0.000000 -0.593669
v 0.804980 0.000520 -0.584852
v 0.804980 -0.000520 -0.584852
v 0.593669 0.000000 -0.817115
v 0.584852 0.000520 -0.804980
v 0.584852 -0.000520 -0.804980
v 0.312110 0.000000 -0.960577
v 0.307475 0.000520 -0.946311
v 0.307475 -0.000520 -0.946311
v 0.000000 0.000000 -1.010010
v 0.000000 0.000520 -0.995010
v 0.000000 -0.000520 -0.995010
v -0.312110 0.000000 -0.960577
v -0.307475 0.000520 -0.946311
v -0.307475 -0.000520 -0.946311
v -0.593669 0.000000 -0.817115
v -0.584852 0.000520 -0.804980
v -0.584852 -0.000520 -0.804980
v -0.817115 0.000000 -0.593669
v -0.804980 0.000520 -0.584852
v -0.804980 -0.000520 -0.584852
v -0.960577 0.000000 -0.312110
v -0.946311 0.000520 -0.307475
v -0.946311 -0.000520 -0.307475
v -1.010010 0.000000 -0.000000
v -0.995010 0.000520 -0.000000
v -0.995010 -0.000520 -0.000000
v -0.960577 0.000000 0.312110
v -0.946311 0.000520 0.307475
v -0.946311 -0.000520 0.307475
v -0.817115 0.000000 0.593669
v -0.804980 0.000520 0.584852
v -0.804980 -0.000520 0.584852
v -0.593669 0.000000 0.817115
v -0.584852 0.000520 0.804980
v -0.584852 -0.000520 0.804980
v -0.312110 0.000000 0.960577
v -0.307475 0.000520 0.946311
v -0.307475 -0.000520 0.946311
v 0.000000 0.000000 1.010010
v 0.000000 0.000520 0.995010
v 0.000000 -0.000520 0.995010
v 0.312110 0.000000 0.960577
v 0.307475 0.000520 0.946311
v 0.307475 -0.000520 0.946311
v 0.593669 0.000000 0.817116
v 0.584852 0.000520 0.804980
v 0.584852 -0.000520 0.804980
v 0.817115 0.000000 0.593669
v 0.804980 0.000520 0.584853
v 0.804980 -0.000520 0.584853
v 0.960576 0.000000 0.312111
v 0.946311 0.000520 0.307475
v 0.946311 -0.000520 0.307475
vt 0.635088 0.529246
vt 0.709960 0.552350
vt 0.710404 0.556482
vt 0.000000 0.677766
vt 0.004807 0.760345
vt 0.000000 0.760345
vt 0.364238 0.525518
vt 0.289596 0.556482
vt 0.290040 0.552350
vt 0.571020 0.477440
vt 0.635762 0.525518
vt 0.000000 0.607519
vt 0.004807 0.677766
vt 0.427355 0.474481
vt 0.364912 0.529246
vt 0.524472 0.406134
vt 0.572646 0.474481
vt 0.000000 0.556482
vt 0.004807 0.607519
vt 0.475528 0.406135
vt 0.428980 0.477440
vt 0.500000 0.322310
vt 0.526789 0.404235
vt 0.502681 0.321656
vt 0.528853 0.404235
vt 0.497319 0.321656
vt 0.473211 0.404235
vt 0.500000 0.234172
vt 0.502681 0.234827
vt 0.504745 0.321656
vt 0.524472 0.150348
vt 0.526789 0.152247
vt 0.504745 0.234827
vt 0.473211 0.152247
vt 0.497319 0.234827
vt 0.572646 0.082001
vt 0.004807 0.948963
vt 0.009613 1.000000
vt 0.004807 1.000000
vt 0.427354 0.082001
vt 0.475528 0.150348
vt 0.571020 0.079042
vt 0.635762 0.030964
vt 0.004807 0.878716
vt 0.009613 0.948963
vt 0.364238 0.030964
vt 0.428980 0.079042
vt 0.710404 0.000000
vt 0.635088 0.027236
vt 0.004807 0.796137
vt 0.009613 0.878716
vt 0.289596 0.000000
vt 0.364912 0.027236
vt 0.789596 0.000000
vt 0.709960 0.004132
vt 0.004807 0.709308
vt 0.009613 0.796137
vt 0.212024 0.004132
vt 0.290040 0.004132
vt 0.864912 0.027236
vt 0.787976 0.004132
vt 0.004807 0.626729
vt 0.009613 0.709308
vt 0.137827 0.030964
vt 0.210404 0.000000
vt 0.925290 0.082001
vt 0.862173 0.030964
vt 0.004807 0.556482
vt 0.009613 0.626729
vt 0.074710 0.082001
vt 0.135088 0.027236
vt 0.975528 0.150348
vt 0.928980 0.079042
vt 0.009613 0.878717
vt 0.014420 0.948963
vt 0.009613 0.948963
vt 0.028853 0.152247
vt 0.071020 0.079043
vt 0.995255 0.234827
vt 0.971147 0.152247
vt 0.009613 0.796137
vt 0.014420 0.878717
vt 0.004745 0.234827
vt 0.024472 0.150348
vt 1.000000 0.322310
vt 1.000000 0.234172
vt 0.009613 0.709308
vt 0.014420 0.796137
vt 0.004745 0.321656
vt 0.000000 0.234172
vt 0.975528 0.406135
vt 0.995255 0.321656
vt 0.009613 0.626728
vt 0.014420 0.709308
vt 0.028853 0.404235
vt 0.000000 0.322310
vt 0.925290 0.474481
vt 0.971147 0.404235
vt 0.009613 0.556482
vt 0.014420 0.626728
vt 0.074710 0.474481
vt 0.024472 0.406135
vt 0.928980 0.477440
vt 0.862174 0.525518
vt 0.000000 0.929754
vt 0.004807 1.000000
vt 0.000000 1.000000
vt 0.135088 0.529246
vt 0.071020 0.477440
vt 0.864913 0.529246
vt 0.787976 0.552350
vt 0.000000 0.847174
vt 0.004807 0.929754
vt 0.212024 0.552350
vt 0.137826 0.525518
vt 0.789596 0.556482
vt 0.004807 0.847174
vt 0.210404 0.556482
vt 0.004807 0.556482
vt 0.528853 0.152247
vt 0.009613 0.556482
vt 0.014420 0.556482
vn 0.0346 0.9994 -0.0055
vn -0.9877 0.0000 0.1564
vn 0.0346 -0.9994 -0.0055
vn 0.0312 0.9994 -0.0159
vn -0.8910 0.0000 0.4540
vn 0.0312 -0.9994 -0.0159
vn 0.0248 0.9994 -0.0248
vn -0.7071 0.0000 0.7071
vn 0.0248 -0.9994 -0.0248
vn 0.0159 0.9994 -0.0312
vn -0.4540 0.0000 0.8910
vn 0.0159 -0.9994 -0.0312
vn 0.0055 0.9994 -0.0346
vn -0.1564 0.0000 0.9877
vn 0.0055 -0.9994 -0.0346
vn -0.0055 0.9994 -0.0346
vn 0.1564 0.0000 0.9877
vn -0.0055 -0.9994 -0.0346
vn -0.0159 0.9994 -0.0312
vn 0.4540 0.0000 0.8910
vn -0.0159 -0.9994 -0.0312
vn -0.0248 0.9994 -0.0248
vn 0.7071 0.0000 0.7071
vn -0.0248 -0.9994 -0.0248
vn -0.0312 0.9994 -0.0159
vn 0.8910 0.0000 0.4540
vn -0.0312 -0.9994 -0.0159
vn -0.0346 0.9994 -0.0055
vn 0.9877 0.0000 0.1564
vn -0.0346 -0.9994 -0.0055
vn -0.0346 0.9994 0.0055
vn 0.9877 0.0000 -0.1564
vn -0.0346 -0.9994 0.0055
vn -0.0312 0.9994 0.0159
vn 0.8910 0.0000 -0.4540
vn -0.0312 -0.9994 0.0159
vn -0.0248 0.9994 0.0248
vn 0.7071 0.0000 -0.7071
vn -0.0248 -0.9994 0.0248
vn -0.0159 0.9994 0.0312
vn 0.4540 0.0000 -0.8910
vn -0.0159 -0.9994 0.0312
vn -0.0055 0.9994 0.0346
vn 0.1564 0.0000 -0.9877
vn -0.0055 -0.9994 0.0346
vn 0.0055 0.9994 0.0346
vn -0.1564 0.0000 -0.9877
vn 0.0055 -0.9994 0.0346
vn 0.0159 0.9994 0.0312
vn -0.4540 0.0000 -0.8910
vn 0.0159 -0.9994 0.0312
vn 0.0248 0.9994 0.0248
vn -0.7071 0.0000 -0.7071
vn 0.0248 -0.9994 0.0248
vn 0.0312 0.9994 0.0159
vn -0.8910 0.0000 -0.4540
vn 0.0312 -0.9994 0.0159
vn 0.0346 0.9994 0.0055
vn -0.9877 0.0000 -0.1564
vn 0.0346 -0.9994 0.0055
usemtl None
s off
f 4/1/1 2/2/1 1/3/1
f 5/4/2 3/5/2 2/6/2
f 6/7/3 1/8/3 3/9/3
f 7/10/4 5/11/4 4/1/4
f 8/12/5 6/13/5 5/4/5
f 9/14/6 4/15/6 6/7/6
f 10/16/7 8/17/7 7/10/7
f 11/18/8 9/19/8 8/12/8
f 9/14/9 10/20/9 7/21/9
f 13/22/10 11/23/10 10/16/10
f 14/24/11 12/25/11 11/23/11
f 15/26/12 10/20/12 12/27/12
f 16/28/13 14/24/13 13/22/13
f 17/29/14 15/30/14 14/24/14
f 15/26/15 16/28/15 13/22/15
f 19/31/16 17/29/16 16/28/16
f 20/32/17 18/33/17 17/29/17
f 21/34/18 16/28/18 18/35/18
f 19/31/19 23/36/19 20/32/19
f 23/37/20 21/38/20 20/39/20
f 24/40/21 19/41/21 21/34/21
f 22/42/22 26/43/22 23/36/22
f 26/44/23 24/45/23 23/37/23
f 27/46/24 22/47/24 24/40/24
f 28/48/25 26/43/25 25/49/25
f 29/50/26 27/51/26 26/44/26
f 27/46/27 28/52/27 25/53/27
f 31/54/28 29/55/28 28/48/28
f 32/56/29 30/57/29 29/50/29
f 33/58/30 28/52/30 30/59/30
f 34/60/31 32/61/31 31/54/31
f 35/62/32 33/63/32 32/56/32
f 36/64/33 31/65/33 33/58/33
f 34/60/34 38/66/34 35/67/34
f 38/68/35 36/69/35 35/62/35
f 39/70/36 34/71/36 36/64/36
f 40/72/37 38/66/37 37/73/37
f 41/74/38 39/75/38 38/76/38
f 42/77/39 37/78/39 39/70/39
f 40/72/40 44/79/40 41/80/40
f 44/81/41 42/82/41 41/74/41
f 45/83/42 40/84/42 42/77/42
f 46/85/43 44/79/43 43/86/43
f 47/87/44 45/88/44 44/81/44
f 48/89/45 43/90/45 45/83/45
f 49/91/46 47/92/46 46/85/46
f 50/93/47 48/94/47 47/87/47
f 51/95/48 46/96/48 48/89/48
f 49/91/49 53/97/49 50/98/49
f 53/99/50 51/100/50 50/93/50
f 54/101/51 49/102/51 51/95/51
f 52/103/52 56/104/52 53/97/52
f 56/105/53 54/106/53 53/107/53
f 54/101/54 55/108/54 52/109/54
f 55/110/55 59/111/55 56/104/55
f 59/112/56 57/113/56 56/105/56
f 60/114/57 55/108/57 57/115/57
f 58/116/58 2/2/58 59/111/58
f 2/6/59 60/117/59 59/112/59
f 60/114/60 1/8/60 58/118/60
f 4/1/1 5/11/1 2/2/1
f 5/4/2 6/13/2 3/5/2
f 6/7/3 4/15/3 1/8/3
f 7/10/4 8/17/4 5/11/4
f 8/12/5 9/19/5 6/13/5
f 9/14/6 7/21/6 4/15/6
f 10/16/7 11/23/7 8/17/7
f 11/18/8 12/119/8 9/19/8
f 9/14/9 12/27/9 10/20/9
f 13/22/10 14/24/10 11/23/10
f 14/24/11 15/30/11 12/25/11
f 15/26/12 13/22/12 10/20/12
f 16/28/13 17/29/13 14/24/13
f 17/29/14 18/33/14 15/30/14
f 15/26/15 18/35/15 16/28/15
f 19/31/16 20/32/16 17/29/16
f 20/32/17 21/120/17 18/33/17
f 21/34/18 19/41/18 16/28/18
f 19/31/19 22/42/19 23/36/19
f 23/37/20 24/45/20 21/38/20
f 24/40/21 22/47/21 19/41/21
f 22/42/22 25/49/22 26/43/22
f 26/44/23 27/51/23 24/45/23
f 27/46/24 25/53/24 22/47/24
f 28/48/25 29/55/25 26/43/25
f 29/50/26 30/57/26 27/51/26
f 27/46/27 30/59/27 28/52/27
f 31/54/28 32/61/28 29/55/28
f 32/56/29 33/63/29 30/57/29
f 33/58/30 31/65/30 28/52/30
f 34/60/31 35/67/31 32/61/31
f 35/62/32 36/69/32 33/63/32
f 36/64/33 34/71/33 31/65/33
f 34/60/34 37/73/34 38/66/34
f 38/68/35 39/121/35 36/69/35
f 39/70/36 37/78/36 34/71/36
f 40/72/37 41/80/37 38/66/37
f 41/74/38 42/82/38 39/75/38
f 42/77/39 40/84/39 37/78/39
f 40/72/40 43/86/40 44/79/40
f 44/81/41 45/88/41 42/82/41
f 45/83/42 43/90/42 40/84/42
f 46/85/43 47/92/43 44/79/43
f 47/87/44 48/94/44 45/88/44
f 48/89/45 46/96/45 43/90/45
f 49/91/46 50/98/46 47/92/46
f 50/93/47 51/100/47 48/94/47
f 51/95/48 49/102/48 46/96/48
f 49/91/49 52/103/49 53/97/49
f 53/99/50 54/122/50 51/100/50
f 54/101/51 52/109/51 49/102/51
f 52/103/52 55/110/52 56/104/52
f 56/105/53 57/113/53 54/106/53
f 54/101/54 57/115/54 55/108/54
f 55/110/55 58/116/55 59/111/55
f 59/112/56 60/117/56 57/113/56
f 60/114/57 58/118/57 55/108/57
f 58/116/58 1/3/58 2/2/58
f 2/6/59 3/5/59 60/117/59
f 60/114/60 3/9/60 1/8/60
